<svg width="96" height="22" viewBox="0 0 82 17" fill="none" xmlns="http://www.w3.org/2000/svg">
<g id="Brand">
<g id="Vector">
<path fill-rule="evenodd" clip-rule="evenodd" d="M16.6613 0.5L0.447256 14.1503L0 16.5H2.33599L14.8958 5.93151L12.8713 16.5H15.9351L19 0.5H16.6613Z" fill="#F3652B"/>
<path fill-rule="evenodd" clip-rule="evenodd" d="M22.0645 0.5L21.4854 3.52307H32.0678L19.4534 14.1444L19 16.5H34.9355L35.5146 13.4769H24.9323L37.5495 2.8533L38 0.5H22.0645Z" fill="#F3652B"/>
<path fill-rule="evenodd" clip-rule="evenodd" d="M41.0003 0.5L38 16.5H40.9997L44 0.5H41.0003Z" fill="#F3652B"/>
<path fill-rule="evenodd" clip-rule="evenodd" d="M47.0644 0.5L44 16.5H59.9356L63 0.5H47.0644ZM49.5536 3.52291H59.3487L57.4422 13.4769H47.6472L49.5536 3.52291Z" fill="#F3652B"/>
<path fill-rule="evenodd" clip-rule="evenodd" d="M78.9357 0.5L77.5761 7.59786L80.0511 10.6745L82 0.5H78.9357ZM66.0644 0.5L63 16.5H66.0656L68.1658 5.53137L77.0192 16.5H78.9355L79.314 14.5413L67.9806 0.5H66.0644Z" fill="#F3652B"/>
</g>
</g>
</svg>
