<svg width="24" height="25" viewBox="0 0 24 25" fill="none" xmlns="http://www.w3.org/2000/svg">
<g id="icon">
<g id="Vector">
<path fill-rule="evenodd" clip-rule="evenodd" d="M12 1.7002C6.03533 1.7002 1.2 6.53552 1.2 12.5002C1.2 18.4649 6.03533 23.3002 12 23.3002C17.9647 23.3002 22.8 18.4649 22.8 12.5002C22.8 6.53552 17.9647 1.7002 12 1.7002ZM2.4 12.5002C2.4 7.19826 6.69807 2.9002 12 2.9002C17.3019 2.9002 21.6 7.19826 21.6 12.5002C21.6 17.8021 17.3019 22.1002 12 22.1002C6.69807 22.1002 2.4 17.8021 2.4 12.5002Z" fill="white"/>
<path fill-rule="evenodd" clip-rule="evenodd" d="M10.3008 8.33558C10.2228 8.36933 10.1461 8.40253 10.0709 8.43461L9.6 7.33086C9.66544 7.30294 9.73615 7.27215 9.81144 7.23936C10.3648 6.99839 11.1661 6.64941 11.9507 6.53782C12.4078 6.47282 12.9079 6.4791 13.3833 6.66082C13.873 6.84799 14.2876 7.20296 14.5862 7.74561C14.984 8.4687 15.0544 9.13472 14.8802 9.75875C14.7161 10.3461 14.349 10.838 14.0089 11.2521C13.9108 11.3714 13.8153 11.4842 13.7229 11.5933C13.4705 11.8914 13.2408 12.1625 13.0448 12.467C12.7915 12.8606 12.6385 13.2505 12.6385 13.6963V15.4078H11.4385V13.6963C11.4385 12.9482 11.7035 12.3338 12.0358 11.8175C12.2783 11.4407 12.5819 11.0826 12.8477 10.7691C12.9303 10.6716 13.0093 10.5784 13.0816 10.4904C13.4122 10.0879 13.6332 9.76235 13.7244 9.43596C13.8053 9.14629 13.798 8.80239 13.5348 8.32408C13.3642 8.01394 13.1624 7.86105 12.9549 7.78173C12.7331 7.69697 12.4552 7.67815 12.1197 7.72587C11.5094 7.81266 10.8709 8.08894 10.3008 8.33558ZM11.047 17.599C11.047 17.0191 11.5171 16.549 12.097 16.549C12.6769 16.549 13.147 17.0191 13.147 17.599C13.147 18.1789 12.6769 18.649 12.097 18.649C11.5171 18.649 11.047 18.1789 11.047 17.599Z" fill="white"/>
</g>
</g>
</svg>
