<svg width="25" height="24" viewBox="0 0 25 24" fill="none" xmlns="http://www.w3.org/2000/svg">
<g id="icon">
<path id="Vector" fill-rule="evenodd" clip-rule="evenodd" d="M24.0447 11.9613C24.0447 17.9978 18.9553 23.0344 12.9268 23.0613V21.8613C15.3834 21.8454 17.8451 20.898 19.6506 19.231C19.1136 18.9832 18.4879 18.7247 17.7788 18.4649C16.5325 18.0117 15.6076 17.5613 15.0015 16.9563C14.3542 16.3102 14.1222 15.5444 14.1222 14.6163C14.1222 14.2854 14.1888 14.018 14.3233 13.78C14.4202 13.6083 14.5548 13.4577 14.6444 13.3575C14.6611 13.3388 14.6763 13.3218 14.6894 13.3068C14.8557 13.1154 15.0757 12.8445 15.2196 12.0627C15.2762 11.7549 15.412 11.5174 15.6378 11.3508C15.7291 11.2834 15.8206 11.2394 15.8696 11.2159L15.8851 11.2084C15.9334 11.1852 15.9486 11.1779 15.9649 11.1679L15.966 11.1674C15.9706 11.1655 15.9858 11.1589 16.0134 11.0981C16.0539 11.0091 16.1097 10.8217 16.1395 10.4479C16.1362 10.2522 16.0868 10.1715 16.0734 10.1524L15.7138 9.99094L16.031 7.78964C16.0591 7.44376 15.9521 6.7509 15.4826 6.15123C14.8911 5.39579 13.7947 5.01169 12.7667 4.99939C11.7297 5.0053 10.696 5.38924 10.0994 6.15123C9.62984 6.7509 9.52286 7.44376 9.551 7.78964L9.86813 9.99094L9.50854 10.1524C9.49514 10.1715 9.44577 10.2522 9.44245 10.4479C9.47229 10.8217 9.52806 11.0091 9.56855 11.0981C9.59619 11.1589 9.6114 11.1655 9.616 11.1674L9.61704 11.1679C9.63338 11.1779 9.64855 11.1852 9.69684 11.2084L9.71234 11.2158C9.76133 11.2394 9.85284 11.2834 9.94413 11.3508C10.17 11.5174 10.3058 11.7549 10.3624 12.0627C10.5063 12.8445 10.7263 13.1154 10.8926 13.3068C10.9057 13.3218 10.9208 13.3388 10.9376 13.3575C11.0272 13.4577 11.1617 13.6083 11.2587 13.78C11.3931 14.018 11.4598 14.2854 11.4598 14.6163C11.4598 15.5444 11.2278 16.3102 10.5805 16.9563C9.97439 17.5613 9.04944 18.0117 7.80318 18.4649C7.17919 18.6935 6.61983 18.9211 6.12863 19.1413C7.90029 20.8238 10.2926 21.8567 12.9268 21.8613V23.0613C9.79125 23.0605 6.75783 21.6941 4.66767 19.359L4.14567 18.7758L4.17184 18.7626C2.7135 16.884 1.84473 14.5236 1.84473 11.9613C1.84473 5.83097 6.81437 0.861328 12.9447 0.861328C19.0492 0.89161 24.0447 5.84972 24.0447 11.9613ZM22.8447 11.9613C22.8447 6.51247 18.3865 2.0916 12.9447 2.06133C7.47711 2.06133 3.04473 6.49371 3.04473 11.9613C3.04473 14.3338 3.87856 16.5102 5.26991 18.2154C5.87703 17.9288 6.58693 17.6325 7.39084 17.338L7.39223 17.3375C8.62053 16.8908 9.32654 16.5125 9.73278 16.107C10.098 15.7425 10.2598 15.3158 10.2598 14.6163C10.2598 14.4597 10.2317 14.4018 10.2138 14.3701C10.1854 14.3198 10.1543 14.2845 10.0757 14.1953C10.0512 14.1674 10.022 14.1344 9.98694 14.094C9.69338 13.7563 9.37119 13.2948 9.18473 12.2937L9.17821 12.2906C9.13786 12.2714 9.06427 12.2364 8.99188 12.1922C8.795 12.0721 8.61114 11.8916 8.47623 11.595C8.35235 11.3226 8.27838 10.9714 8.24396 10.5138L8.24227 10.4914V10.4688C8.24227 10.0153 8.36824 9.67872 8.54172 9.44151C8.55144 9.42823 8.56122 9.41537 8.57103 9.40294L8.35878 7.92965L8.35739 7.91483C8.29938 7.29605 8.47325 6.28154 9.15454 5.41143C9.97445 4.36429 11.367 3.82343 12.7667 3.8139C14.1444 3.82329 15.5947 4.34784 16.4274 5.41143C17.1087 6.28154 17.2826 7.29605 17.2246 7.91483L17.2232 7.92965L17.0109 9.40294C17.0208 9.41537 17.0305 9.42823 17.0403 9.44151C17.2137 9.67872 17.3397 10.0153 17.3397 10.4688V10.4914L17.338 10.5138C17.3036 10.9714 17.2296 11.3226 17.1058 11.595C16.9708 11.8916 16.787 12.0721 16.5901 12.1922C16.5177 12.2364 16.4441 12.2714 16.4038 12.2906L16.3972 12.2937C16.2108 13.2948 15.8886 13.7563 15.595 14.094C15.5599 14.1344 15.5308 14.1674 15.5063 14.1953C15.4277 14.2845 15.3966 14.3198 15.3682 14.3701C15.3503 14.4018 15.3222 14.4597 15.3222 14.6163C15.3222 15.3158 15.484 15.7425 15.8492 16.107C16.2554 16.5125 16.9614 16.8908 18.1898 17.3375L18.1911 17.338C19.0942 17.6689 19.8787 18.0019 20.5321 18.3211C21.9755 16.6009 22.8447 14.3826 22.8447 11.9613Z" fill="white"/>
</g>
</svg>
