<svg width="24" height="25" viewBox="0 0 24 25" fill="none" xmlns="http://www.w3.org/2000/svg">
<path fill-rule="evenodd" clip-rule="evenodd" d="M9.52662 4.1002C6.23292 4.1002 3.56284 6.77027 3.56284 10.064C3.56284 13.3577 6.23292 16.0278 9.52662 16.0278C11.1895 16.0278 12.6915 15.3488 13.7745 14.25C14.8368 13.172 15.4904 11.6955 15.4904 10.064C15.4904 6.77027 12.8203 4.1002 9.52662 4.1002ZM1.16284 10.064C1.16284 5.44479 4.90743 1.7002 9.52662 1.7002C14.1458 1.7002 17.8904 5.44479 17.8904 10.064C17.8904 11.9212 17.284 13.6383 16.26 15.026L22.4856 21.2517L20.7886 22.9487L14.5736 16.7338C13.1713 17.7963 11.422 18.4278 9.52662 18.4278C4.90743 18.4278 1.16284 14.6832 1.16284 10.064Z" fill="#666666"/>
</svg>
